<svg width="14" height="14" viewBox="0 0 14 14" fill="none" xmlns="http://www.w3.org/2000/svg">
<path d="M4.2 0.7C4.2 0.514348 4.12625 0.336301 3.99497 0.205025C3.8637 0.0737498 3.68565 0 3.5 0C3.31435 0 3.1363 0.0737498 3.00503 0.205025C2.87375 0.336301 2.8 0.514348 2.8 0.7H4.2ZM2.8 2.8C2.8 2.98565 2.87375 3.1637 3.00503 3.29497C3.1363 3.42625 3.31435 3.5 3.5 3.5C3.68565 3.5 3.8637 3.42625 3.99497 3.29497C4.12625 3.1637 4.2 2.98565 4.2 2.8H2.8ZM7.7 0.7C7.7 0.514348 7.62625 0.336301 7.49497 0.205025C7.3637 0.0737498 7.18565 0 7 0C6.81435 0 6.6363 0.0737498 6.50503 0.205025C6.37375 0.336301 6.3 0.514348 6.3 0.7H7.7ZM6.3 2.8C6.3 2.98565 6.37375 3.1637 6.50503 3.29497C6.6363 3.42625 6.81435 3.5 7 3.5C7.18565 3.5 7.3637 3.42625 7.49497 3.29497C7.62625 3.1637 7.7 2.98565 7.7 2.8H6.3ZM11.2 0.7C11.2 0.514348 11.1263 0.336301 10.995 0.205025C10.8637 0.0737498 10.6857 0 10.5 0C10.3143 0 10.1363 0.0737498 10.005 0.205025C9.87375 0.336301 9.8 0.514348 9.8 0.7H11.2ZM9.8 2.8C9.8 2.98565 9.87375 3.1637 10.005 3.29497C10.1363 3.42625 10.3143 3.5 10.5 3.5C10.6857 3.5 10.8637 3.42625 10.995 3.29497C11.1263 3.1637 11.2 2.98565 11.2 2.8H9.8ZM0.7 4.2C0.514348 4.2 0.336301 4.27375 0.205025 4.40503C0.0737498 4.5363 0 4.71435 0 4.9C0 5.08565 0.0737498 5.2637 0.205025 5.39497C0.336301 5.52625 0.514348 5.6 0.7 5.6V4.2ZM13.3 5.6C13.4857 5.6 13.6637 5.52625 13.795 5.39497C13.9263 5.2637 14 5.08565 14 4.9C14 4.71435 13.9263 4.5363 13.795 4.40503C13.6637 4.27375 13.4857 4.2 13.3 4.2V5.6ZM3.5 7.7V7H2.8V7.7H3.5ZM3.5 7.707H2.8V8.407H3.5V7.707ZM3.507 7.707V8.407H4.207V7.707H3.507ZM3.507 7.7H4.207V7H3.507V7.7ZM7 7.7V7H6.3V7.7H7ZM7 7.707H6.3V8.407H7V7.707ZM7.007 7.707V8.407H7.707V7.707H7.007ZM7.007 7.7H7.707V7H7.007V7.7ZM7 10.5V9.8H6.3V10.5H7ZM7 10.507H6.3V11.207H7V10.507ZM7.007 10.507V11.207H7.707V10.507H7.007ZM7.007 10.5H7.707V9.8H7.007V10.5ZM10.5 10.5V9.8H9.8V10.5H10.5ZM10.5 10.507H9.8V11.207H10.5V10.507ZM10.507 10.507V11.207H11.207V10.507H10.507ZM10.507 10.5H11.207V9.8H10.507V10.5ZM10.5 7.7V7H9.8V7.7H10.5ZM10.5 7.707H9.8V8.407H10.5V7.707ZM10.507 7.707V8.407H11.207V7.707H10.507ZM10.507 7.7H11.207V7H10.507V7.7ZM3.5 10.5V9.8H2.8V10.5H3.5ZM3.5 10.507H2.8V11.207H3.5V10.507ZM3.507 10.507V11.207H4.207V10.507H3.507ZM3.507 10.5H4.207V9.8H3.507V10.5ZM1.4 2.8H12.6V1.4H1.4V2.8ZM12.6 2.8H14C14 2.4287 13.8525 2.0726 13.5899 1.81005C13.3274 1.5475 12.9713 1.4 12.6 1.4V2.8ZM12.6 2.8V12.6H14V2.8H12.6ZM12.6 12.6V14C12.9713 14 13.3274 13.8525 13.5899 13.5899C13.8525 13.3274 14 12.9713 14 12.6H12.6ZM12.6 12.6H1.4V14H12.6V12.6ZM1.4 12.6H0C0 12.9713 0.1475 13.3274 0.410051 13.5899C0.672601 13.8525 1.0287 14 1.4 14V12.6ZM1.4 12.6V2.8H0V12.6H1.4ZM1.4 2.8V1.4C1.0287 1.4 0.672601 1.5475 0.410051 1.81005C0.1475 2.0726 0 2.4287 0 2.8H1.4ZM2.8 0.7V2.8H4.2V0.7H2.8ZM6.3 0.7V2.8H7.7V0.7H6.3ZM9.8 0.7V2.8H11.2V0.7H9.8ZM0.7 5.6H13.3V4.2H0.7V5.6ZM2.8 7.7V7.707H4.2V7.7H2.8ZM3.5 8.407H3.507V7.007H3.5V8.407ZM4.207 7.707V7.7H2.807V7.707H4.207ZM3.507 7H3.5V8.4H3.507V7ZM6.3 7.7V7.707H7.7V7.7H6.3ZM7 8.407H7.007V7.007H7V8.407ZM7.707 7.707V7.7H6.307V7.707H7.707ZM7.007 7H7V8.4H7.007V7ZM6.3 10.5V10.507H7.7V10.5H6.3ZM7 11.207H7.007V9.807H7V11.207ZM7.707 10.507V10.5H6.307V10.507H7.707ZM7.007 9.8H7V11.2H7.007V9.8ZM9.8 10.5V10.507H11.2V10.5H9.8ZM10.5 11.207H10.507V9.807H10.5V11.207ZM11.207 10.507V10.5H9.807V10.507H11.207ZM10.507 9.8H10.5V11.2H10.507V9.8ZM9.8 7.7V7.707H11.2V7.7H9.8ZM10.5 8.407H10.507V7.007H10.5V8.407ZM11.207 7.707V7.7H9.807V7.707H11.207ZM10.507 7H10.5V8.4H10.507V7ZM2.8 10.5V10.507H4.2V10.5H2.8ZM3.5 11.207H3.507V9.807H3.5V11.207ZM4.207 10.507V10.5H2.807V10.507H4.207ZM3.507 9.8H3.5V11.2H3.507V9.8Z" fill="#95A1BB"/>
</svg>
